# xmcd
#
# Track frame offsets: 
#        150
#        8820
#        19240
#        40762
#        56227
#        73720
#        92500
#        105822
#        115262
#        127237
#        141602
#        158940
#        167260
#        181250
#        200205
#        228437
#        256695
#        270947
#        284160
#        300282
#        313925
#        327720
#
# Disc length: 4511 seconds
#
# Revision: 2
# Processed by: cddbd v1.5.2PL0 Copyright (c) Steve Scherf et al.
# Submitted via: ExactAudioCopyFreeDBPlugin 1.0
#
DISCID=3d119d16
DTITLE=Various Artist - Essential Bluegrass Collection
DYEAR=1998
DGENRE=Bluegrass
TTITLE0=Carl Jackson - Dueling Banjos
TTITLE1=Nashville Bluegrass Band - Doorstep Of Trouble
TTITLE2=Peter Rowan and The Rowan Brothers - Man Of Constant Sorrow
TTITLE3=Jerry Douglas - Russ Barenberg - Edgar Meyer - Big Sciota
TTITLE4=New Grass Revival - One Love - People Get Ready
TTITLE5=Nashville Bluegrass Band - Long Time Gone
TTITLE6=Front Range - Rambling On My Mind
TTITLE7=Doyle Lawson and Quicksilver - Rock My Soul
TTITLE8=Lonesome Standard Time - Anything Southbound
TTITLE9=Jerry Douglas - Allison Krauss - I Don't Believe You've Met My 
TTITLE9=Baby
TTITLE10=Tim and Mollie O'Brien - Away Out On The Mountain
TTITLE11=The Country Gentlemen - Honey Don't
TTITLE12=Chesapeake - The Last Thing On My Mind
TTITLE13=Peter Rowan and The Nashville Bluegrass Band - A Moth To A Flam
TTITLE13=e
TTITLE14=Psychograss - Third Stone From The Sun
TTITLE15=Robert Earl Keen Jr. - The Bluegrass Widow
TTITLE16=Front Range - Were You There?
TTITLE17=Lonesome Standard Time - Possession's Nine-Tenths Of The Law
TTITLE18=Dan Crary - Black Mountain Rag
TTITLE19=Blue Rose - Your Frienship Carries Me
TTITLE20=Boone Creek - Can't You Hear Me Calling
TTITLE21=Carl Jackson - Foggy Mountain Breakdown
EXTD=YEAR: 1998
EXTT0=
EXTT1=
EXTT2=
EXTT3=
EXTT4=
EXTT5=
EXTT6=
EXTT7=
EXTT8=
EXTT9=
EXTT10=
EXTT11=
EXTT12=
EXTT13=
EXTT14=
EXTT15=
EXTT16=
EXTT17=
EXTT18=
EXTT19=
EXTT20=
EXTT21=
PLAYORDER=
